<svg xmlns="http://www.w3.org/2000/svg" aria-hidden="true" style="position:absolute;width:0;height:0;overflow:hidden">
  <defs>
<symbol id="icon-logo" viewBox="0 0 32 32">
<path fill="#fbfbfb" style="fill: var(--color1, #fbfbfb)" d="M29.082 0.314h-4.009c-1.237 0-2.24 0.983-2.24 2.195v3.929c0 1.212 1.003 2.195 2.24 2.195h4.009c1.237 0 2.24-0.983 2.24-2.195v-3.929c0-1.212-1.003-2.195-2.24-2.195z"></path>
<path fill="#fbfbfb" style="fill: var(--color1, #fbfbfb)" d="M6.73 23.040h-4.318c-1.332 0-2.412 0.983-2.412 2.195v3.929c0 1.213 1.080 2.195 2.412 2.195h4.318c1.332 0 2.412-0.983 2.412-2.195v-3.929c0-1.212-1.080-2.195-2.412-2.195z"></path>
<path fill="#fbfbfb" style="fill: var(--color1, #fbfbfb)" d="M6.25 11.582h-4.009c-1.237 0-2.24 0.983-2.24 2.195v3.929c0 1.212 1.003 2.195 2.24 2.195h4.009c1.237 0 2.24-0.983 2.24-2.195v-3.929c0-1.212-1.003-2.195-2.24-2.195z"></path>
<path fill="#fbfbfb" style="fill: var(--color1, #fbfbfb)" d="M17.766 22.978h-4.009c-1.237 0-2.24 0.983-2.24 2.195l-0 3.929c0 1.212 1.003 2.195 2.241 2.195h4.009c1.237 0 2.24-0.983 2.24-2.195v-3.929c0-1.213-1.003-2.195-2.24-2.195z"></path>
<path fill="#fbfbfb" style="fill: var(--color1, #fbfbfb)" d="M6.25 0.086h-4.009c-1.237 0-2.24 0.983-2.24 2.195v3.929c0 1.212 1.003 2.195 2.24 2.195h4.009c1.237 0 2.24-0.983 2.24-2.195v-3.929c0-1.212-1.003-2.195-2.24-2.195z"></path>
<path fill="#fbfbfb" style="fill: var(--color1, #fbfbfb)" d="M18.076 11.697h-4.009c-1.237 0-2.24 0.983-2.24 2.195v3.929c0 1.212 1.003 2.195 2.24 2.195h4.009c1.237 0 2.24-0.983 2.24-2.195v-3.929c0-1.212-1.003-2.195-2.24-2.195z"></path>
<path fill="#fbfbfb" style="fill: var(--color1, #fbfbfb)" d="M29.333 22.978h-4.010c-1.237 0-2.24 0.983-2.24 2.195v3.929c0 1.212 1.003 2.195 2.24 2.195h4.009c1.237 0 2.24-0.983 2.24-2.195v-3.929c0-1.213-1.003-2.195-2.24-2.195z"></path>
<path fill="#fbfbfb" style="fill: var(--color1, #fbfbfb)" d="M17.591 0.224h-4.009c-1.237 0-2.24 0.983-2.24 2.195v3.929c0 1.212 1.003 2.195 2.24 2.195h4.009c1.237 0 2.24-0.984 2.24-2.196v-3.929c0-1.212-1.003-2.195-2.24-2.195z"></path>
<path fill="#fbfbfb" style="fill: var(--color1, #fbfbfb)" d="M29.044 11.926h-4.010c-1.237 0-2.24 0.983-2.24 2.195v3.929c0 1.212 1.003 2.195 2.24 2.195h4.009c1.237 0 2.24-0.983 2.24-2.195v-3.929c0-1.212-1.003-2.195-2.24-2.195z"></path>
</symbol>
<symbol id="icon-open-menu" viewBox="0 0 42 32">
<path fill="none" stroke="#fbfbfb" style="stroke: var(--color1, #fbfbfb)" stroke-linejoin="round" stroke-linecap="round" stroke-miterlimit="4" stroke-width="4.8" d="M3.733 3.2h34.133M3.733 16h17.067M3.733 28.8h34.133"></path>
</symbol>
<!--  -->
<svg id="icon-logo-text" width="146" height="12" viewBox="0 0 146 12" fill="none" xmlns="http://www.w3.org/2000/svg">
  <path d="M6.30096 12C2.5132 12 0 9.648 0 5.984C0 2.4 2.4773 0 6.2112 0C9.35271 0 11.5607 1.648 11.8839 4.128H9.2809C9.02958 2.704 7.82683 1.904 6.2112 1.904C3.94932 1.904 2.60296 3.536 2.60296 5.984C2.60296 8.672 4.11088 10.096 6.30096 10.096C8.20381 10.096 9.42451 9.136 9.55017 7.696V7.536H6.04964V5.744H11.9736V7.216C11.8659 10.08 9.60403 12 6.30096 12Z" fill="#FBFBFB" />
  <path d="M13.543 11.84V0.16H19.8439C23.0572 0.16 24.3318 1.552 24.3318 3.568C24.3318 5.376 22.8957 6.24 21.2262 6.448V6.496C22.3033 6.736 22.788 7.264 23.2368 8.304C23.8112 9.616 23.901 11.184 24.637 11.744V11.84H21.7647C21.1544 11.296 21.0108 9.584 20.6876 8.544C20.3645 7.472 19.6644 7.344 18.354 7.344H16.0562V11.84H13.543ZM16.0562 5.488H19.5747C21.0467 5.488 21.7288 4.72 21.7288 3.728C21.7288 2.64 20.8851 2.016 19.5747 2.016H16.0562V5.488Z" fill="#FBFBFB" />
  <path d="M26.001 11.84V0.16H34.9588V2.016H28.5142V4.8H34.3305V6.656H28.5142V9.936H35.0485V11.84H26.001Z" fill="#FBFBFB" />
  <path d="M36.7936 11.84V0.16H45.7514V2.016H39.3068V4.8H45.1231V6.656H39.3068V9.936H45.8411V11.84H36.7936Z" fill="#FBFBFB" />
  <path d="M47.5862 11.84V0.16H50.638L54.9822 6.608C56.3106 8.56 56.4722 9.2 56.4722 9.2H56.526L56.4901 0.16H59.0033V11.84H55.9336L51.4278 5.2C50.4046 3.696 50.1353 2.784 50.1353 2.784H50.0994V11.84H47.5862Z" fill="#FBFBFB" />
  <path d="M60.894 11.84V9.472H63.5149V11.84H60.894Z" fill="#FBFBFB" />
  <path d="M65.4023 11.84V0.16H67.9155V4.832H73.9293V0.16H76.4425V11.84H73.9293V6.688H67.9155V11.84H65.4023Z" fill="#FBFBFB" />
  <path d="M77.5166 11.84L82.543 0.16H85.2716L90.3699 11.84H87.6771L86.618 9.152H81.1787L80.1196 11.84H77.5166ZM81.8968 7.296H85.8999L84.7331 4.416C83.9253 2.288 83.9073 1.904 83.9073 1.904H83.8714C83.8714 1.904 83.8714 2.288 83.0636 4.416L81.8968 7.296Z" fill="#FBFBFB" />
  <path d="M91.4403 11.84V0.16H97.7413C100.955 0.16 102.229 1.552 102.229 3.568C102.229 5.376 100.793 6.24 99.1236 6.448V6.496C100.201 6.736 100.685 7.264 101.134 8.304C101.709 9.616 101.798 11.184 102.534 11.744V11.84H99.6621C99.0518 11.296 98.9082 9.584 98.585 8.544C98.2619 7.472 97.5618 7.344 96.2513 7.344H93.9536V11.84H91.4403ZM93.9536 5.488H97.472C98.9441 5.488 99.6262 4.72 99.6262 3.728C99.6262 2.64 98.7825 2.016 97.472 2.016H93.9536V5.488Z" fill="#FBFBFB" />
  <path d="M106.563 11.84L101.752 0.16H104.445C104.445 0.16 107.048 6.704 107.317 7.504C107.748 8.784 107.945 9.44 107.945 9.44H107.981C107.963 9.44 108.161 8.784 108.609 7.504C108.897 6.704 111.392 0.16 111.392 0.16H113.995L109.363 11.84H106.563Z" fill="#FBFBFB" />
  <path d="M115.024 11.84V0.16H123.982V2.016H117.537V4.8H123.354V6.656H117.537V9.936H124.072V11.84H115.024Z" fill="#FBFBFB" />
  <path d="M130.311 12C126.972 12 124.961 10.384 124.961 7.984H127.834C127.798 9.344 128.803 10.096 130.311 10.096C131.909 10.096 132.662 9.536 132.662 8.704C132.662 7.872 132.016 7.52 129.718 6.96C127.618 6.448 125.32 5.84 125.32 3.44C125.32 1.536 127.187 0 130.131 0C133.165 0 135.104 1.52 135.104 3.664H132.321C132.303 2.528 131.442 1.904 130.131 1.904C128.857 1.904 128.013 2.48 128.013 3.248C128.013 4.16 128.713 4.448 130.544 4.912C133.255 5.584 135.445 5.856 135.445 8.464C135.445 10.56 133.309 12 130.311 12Z" fill="#FBFBFB" />
  <path d="M139.537 11.84V2.064H135.57V0.16H146V2.064H142.051V11.84H139.537Z" fill="#FBFBFB" />
</svg>


<!--  -->
  </defs>
</svg>
